<svg xmlns="http://www.w3.org/2000/svg" width="420" height="360" viewBox="0 0 420 360" fill="none">
  <defs>
    <g id="i-spark">
      <path d="M0-10 2.8-2.8 10 0 2.8 2.8 0 10-2.8 2.8-10 0-2.8-2.8 0-10Z"/>
      <path d="M0-15v3M15 0h-3M0 15v-3M-15 0h3"/>
    </g>
    <g id="i-moon">
      <path d="M8.8-17.2c-2.4-.8-4.9-1.1-7.4-1.1-13.6 0-24.4 10.8-24.4 24.3S-12.2 30.3 1.4 30.3c9.1 0 17.1-4.9 21.3-12.3-2.2.7-4.4 1.1-6.8 1.1-13.6 0-24.3-10.8-24.3-24.4 0-3.8.9-7.3 2.4-10.6 4.6-1.2 9.4-1.6 14.8-1.3Z"/>
    </g>
    <g id="i-swallow">
      <path d="M-21 7c7.2-1.3 13.2-4.5 18-9.8 2.1-2.3 3.9-4.8 5.3-7.4 1.5 2.7 3.4 5.2 5.7 7.4C13-7.6 18.8-4.4 26 7c-7.2-.8-13.4-3-18.8-6.9-2-1.4-3.8-3-5.4-4.8C.1-2.8-1.8-1.1-4 .4-9.3 4.2-15 6.4-21 7Z"/>
      <path d="M1.8-5.2 5.3-15"/>
    </g>
    <g id="i-sprig">
      <path d="M-2 16c1.8-10.7 2.8-19.9 2.8-27.8"/>
      <path d="M1.2-4.2c4.8-6 9.9-9 15.2-9-1.5 5.8-5.6 10.3-12.3 13.3"/>
      <path d="M-1.8 2.6c-5.2-5.4-10.3-7.8-15.3-7.2 2.1 5.5 6.5 9.4 13.2 11.7"/>
      <path d="M2.4 10.4c4.1-4.4 8.1-6.6 12-6.6-1.7 4.6-5.1 8-10.3 10"/>
    </g>
    <g id="i-cloud">
      <path d="M-21 8c-6 0-10.8-4.8-10.8-10.8 0-5.4 4-9.9 9.3-10.7 2.7-6.2 8.8-10.2 15.7-10.2 8.5 0 15.7 6 17.3 14.1 5.5.4 9.9 5 9.9 10.6C20.4 6 15.6 11 9.8 11H-21"/>
    </g>
    <g id="i-orbit">
      <circle cx="0" cy="0" r="8.6"/>
      <path d="M-20 0c0-7.2 9-13 20-13S20-7.2 20 0 11 13 0 13-20 7.2-20 0Z"/>
      <path d="M10-9.3 16-15.2"/>
    </g>
    <g id="i-envelope">
      <path d="M-18-11h36v23c0 5-4 9-9 9H-9c-5 0-9-4-9-9v-23Z"/>
      <path d="m-18-8.6 18 13.2L18-8.6"/>
      <path d="M-9.6 14.4 0 6.8l9.6 7.6"/>
    </g>
    <g id="i-book">
      <path d="M-15.5 13.8v-24.2c0-4.6 3-7.8 7.4-7.8H9.7c4.4 0 7.4 3.2 7.4 7.8v24.2c-2.7-1.8-6.1-2.7-10-2.7H-5.5c-4 0-7.3.9-10 2.7Z"/>
      <path d="M0.8-17.8v28.9"/>
      <path d="M-9.2-8.8H-3M4.6-8.8h6.2M-9.2.2H-3M4.6.2h6.2"/>
    </g>
    <g id="i-star">
      <path d="M0-13.5 3.7-3.7 13.5 0 3.7 3.7 0 13.5-3.7 3.7-13.5 0-3.7-3.7 0-13.5Z"/>
    </g>
  </defs>

  <g stroke="#b8c19f" stroke-width="1.35" stroke-linecap="round" stroke-linejoin="round">
    <use href="#i-moon" transform="translate(34 34) rotate(-18) scale(0.72)"/>
    <use href="#i-spark" transform="translate(84 37) rotate(11) scale(0.46)"/>
    <use href="#i-swallow" transform="translate(137 36) rotate(14) scale(0.64)"/>
    <use href="#i-sprig" transform="translate(191 38) rotate(-18) scale(0.72)"/>
    <use href="#i-cloud" transform="translate(247 37) rotate(7) scale(0.62)"/>
    <use href="#i-star" transform="translate(305 35) rotate(-12) scale(0.42)"/>
    <use href="#i-envelope" transform="translate(358 39) rotate(16) scale(0.62)"/>
    <use href="#i-spark" transform="translate(404 33) rotate(-8) scale(0.36)"/>

    <use href="#i-book" transform="translate(61 82) rotate(-13) scale(0.68)"/>
    <use href="#i-orbit" transform="translate(115 85) rotate(17) scale(0.66)"/>
    <use href="#i-star" transform="translate(168 81) rotate(8) scale(0.34)"/>
    <use href="#i-moon" transform="translate(219 84) rotate(21) scale(0.58)"/>
    <use href="#i-swallow" transform="translate(274 83) rotate(-16) scale(0.58)"/>
    <use href="#i-cloud" transform="translate(331 86) rotate(-8) scale(0.58)"/>
    <use href="#i-sprig" transform="translate(388 84) rotate(19) scale(0.66)"/>

    <use href="#i-spark" transform="translate(28 128) rotate(14) scale(0.34)"/>
    <use href="#i-envelope" transform="translate(83 129) rotate(9) scale(0.58)"/>
    <use href="#i-swallow" transform="translate(138 130) rotate(-21) scale(0.56)"/>
    <use href="#i-sprig" transform="translate(193 129) rotate(12) scale(0.68)"/>
    <use href="#i-book" transform="translate(250 131) rotate(-15) scale(0.62)"/>
    <use href="#i-orbit" transform="translate(306 128) rotate(13) scale(0.58)"/>
    <use href="#i-star" transform="translate(359 132) rotate(-17) scale(0.36)"/>
    <use href="#i-cloud" transform="translate(404 129) rotate(9) scale(0.56)"/>

    <use href="#i-cloud" transform="translate(36 176) rotate(-7) scale(0.62)"/>
    <use href="#i-moon" transform="translate(92 178) rotate(16) scale(0.58)"/>
    <use href="#i-sprig" transform="translate(148 177) rotate(-15) scale(0.7)"/>
    <use href="#i-star" transform="translate(202 175) rotate(11) scale(0.36)"/>
    <use href="#i-envelope" transform="translate(255 178) rotate(14) scale(0.6)"/>
    <use href="#i-swallow" transform="translate(313 176) rotate(-12) scale(0.58)"/>
    <use href="#i-orbit" transform="translate(369 178) rotate(18) scale(0.62)"/>

    <use href="#i-book" transform="translate(57 223) rotate(14) scale(0.62)"/>
    <use href="#i-spark" transform="translate(109 224) rotate(-6) scale(0.38)"/>
    <use href="#i-cloud" transform="translate(162 225) rotate(8) scale(0.58)"/>
    <use href="#i-moon" transform="translate(221 224) rotate(-18) scale(0.56)"/>
    <use href="#i-sprig" transform="translate(277 224) rotate(17) scale(0.66)"/>
    <use href="#i-star" transform="translate(331 223) rotate(7) scale(0.34)"/>
    <use href="#i-swallow" transform="translate(386 225) rotate(-19) scale(0.56)"/>

    <use href="#i-envelope" transform="translate(33 272) rotate(-14) scale(0.56)"/>
    <use href="#i-orbit" transform="translate(88 272) rotate(12) scale(0.56)"/>
    <use href="#i-star" transform="translate(143 270) rotate(-9) scale(0.34)"/>
    <use href="#i-book" transform="translate(198 272) rotate(16) scale(0.6)"/>
    <use href="#i-cloud" transform="translate(254 271) rotate(-11) scale(0.56)"/>
    <use href="#i-spark" transform="translate(311 273) rotate(13) scale(0.36)"/>
    <use href="#i-moon" transform="translate(366 271) rotate(20) scale(0.54)"/>
    <use href="#i-sprig" transform="translate(412 272) rotate(-16) scale(0.6)"/>

    <use href="#i-star" transform="translate(31 321) rotate(10) scale(0.38)"/>
    <use href="#i-swallow" transform="translate(84 319) rotate(-15) scale(0.54)"/>
    <use href="#i-moon" transform="translate(141 321) rotate(17) scale(0.52)"/>
    <use href="#i-sprig" transform="translate(195 320) rotate(-10) scale(0.62)"/>
    <use href="#i-envelope" transform="translate(250 321) rotate(12) scale(0.54)"/>
    <use href="#i-orbit" transform="translate(305 320) rotate(-18) scale(0.54)"/>
    <use href="#i-star" transform="translate(359 321) rotate(14) scale(0.34)"/>
    <use href="#i-cloud" transform="translate(409 319) rotate(8) scale(0.5)"/>

    <use href="#i-star" transform="translate(13 59) rotate(-9) scale(0.22)"/>
    <use href="#i-star" transform="translate(204 59) rotate(7) scale(0.2)"/>
    <use href="#i-star" transform="translate(282 57) rotate(-15) scale(0.18)"/>
    <use href="#i-star" transform="translate(392 67) rotate(12) scale(0.2)"/>
    <use href="#i-star" transform="translate(47 109) rotate(11) scale(0.2)"/>
    <use href="#i-star" transform="translate(228 110) rotate(-7) scale(0.18)"/>
    <use href="#i-star" transform="translate(341 110) rotate(9) scale(0.2)"/>
    <use href="#i-star" transform="translate(19 154) rotate(-14) scale(0.18)"/>
    <use href="#i-star" transform="translate(119 152) rotate(8) scale(0.2)"/>
    <use href="#i-star" transform="translate(289 154) rotate(-10) scale(0.18)"/>
    <use href="#i-star" transform="translate(385 153) rotate(13) scale(0.18)"/>
    <use href="#i-star" transform="translate(73 202) rotate(-7) scale(0.18)"/>
    <use href="#i-star" transform="translate(183 201) rotate(10) scale(0.18)"/>
    <use href="#i-star" transform="translate(353 202) rotate(-11) scale(0.18)"/>
    <use href="#i-star" transform="translate(25 246) rotate(14) scale(0.18)"/>
    <use href="#i-star" transform="translate(196 247) rotate(-9) scale(0.18)"/>
    <use href="#i-star" transform="translate(294 245) rotate(11) scale(0.18)"/>
    <use href="#i-star" transform="translate(412 245) rotate(-12) scale(0.2)"/>
    <use href="#i-star" transform="translate(62 295) rotate(9) scale(0.18)"/>
    <use href="#i-star" transform="translate(231 295) rotate(-8) scale(0.18)"/>
    <use href="#i-star" transform="translate(340 294) rotate(7) scale(0.18)"/>
  </g>
</svg>
